<svg xmlns="http://www.w3.org/2000/svg" width="671.004" height="471.012" viewBox="0 0 671.004 471.012">
  <path id="Color_Overlay" data-name="Color Overlay" d="M400.172,1222.471,226.282,1059.56a3.871,3.871,0,0,1,.308-6.009c12.774-9.15,56.747-35.9,103.54-9.334,17.881,10.143,68.932,39.322,68.932,39.322s112.853-122.081,198.67-194.276c52.289-44.008,162.047-123.405,290.326-136.231,7.7-.753,11.08,9.757,4.293,13.487-40.807,22.381-118.62,72.1-211.877,166.4-140.4,141.927-251.866,265.957-272.75,289.366a5.047,5.047,0,0,1-3.795,1.719A5.485,5.485,0,0,1,400.172,1222.471Z" transform="translate(-224.999 -752.993)" fill="#fff"/>
</svg>
