<svg xmlns="http://www.w3.org/2000/svg" width="15" height="15" viewBox="0 0 15 15">
  <g id="Objet_dynamique_vectoriel" data-name="Objet dynamique vectoriel" transform="translate(-958 -1903)">
    <g id="Objet_dynamique_vectoriel-2" data-name="Objet dynamique vectoriel" transform="translate(956.611 1901.611)">
      <g id="Group_211" data-name="Group 211">
        <path id="Path_748" data-name="Path 748" d="M16.389,13.461a1.169,1.169,0,0,0-.357-.857L12.318,8.889l3.714-3.714a1.207,1.207,0,0,0,0-1.714L14.318,1.746a1.207,1.207,0,0,0-1.714,0L8.889,5.461,5.175,1.747a1.207,1.207,0,0,0-1.714,0L1.746,3.461a1.207,1.207,0,0,0,0,1.714L5.461,8.889,1.746,12.6a1.207,1.207,0,0,0,0,1.714l1.714,1.714a1.207,1.207,0,0,0,1.714,0l3.714-3.714L12.6,16.032a1.207,1.207,0,0,0,1.714,0l1.714-1.714A1.169,1.169,0,0,0,16.389,13.461Z"/>
      </g>
    </g>
    <path id="Color_Overlay" data-name="Color Overlay" d="M969.215,1917.643l-3.714-3.714-3.714,3.714a1.207,1.207,0,0,1-1.715,0l-1.714-1.715a1.206,1.206,0,0,1,0-1.714l3.714-3.714-3.714-3.714a1.209,1.209,0,0,1,0-1.714l1.714-1.714a1.207,1.207,0,0,1,1.715,0l3.714,3.714,3.714-3.714a1.208,1.208,0,0,1,1.714,0l1.715,1.714a1.207,1.207,0,0,1,0,1.714l-3.714,3.714,3.714,3.714a1.207,1.207,0,0,1,0,1.714l-1.715,1.714a1.206,1.206,0,0,1-1.714,0Z" fill="#7e8299"/>
  </g>
</svg>
