<svg xmlns="http://www.w3.org/2000/svg" xmlns:xlink="http://www.w3.org/1999/xlink" width="19.56" height="20.217" viewBox="0 0 19.56 20.217">
  <defs>
    <linearGradient id="linear-gradient" x1="-0.25" y1="0.5" x2="1.25" y2="0.5" gradientUnits="objectBoundingBox">
      <stop offset="0" stop-color="#7500f4"/>
      <stop offset="0.455" stop-color="#531bff"/>
      <stop offset="0.771" stop-color="#0098ff"/>
      <stop offset="1" stop-color="#00f5c5"/>
    </linearGradient>
  </defs>
  <g id="HELP_" data-name="HELP " transform="translate(-408.22 -244.22)">
    <circle id="Ellipse_778" data-name="Ellipse 778" cx="9.78" cy="9.78" r="9.78" transform="translate(408.22 244.22)" fill="#dddfef"/>
    <g id="_" data-name="?">
      <text id="_2" data-name="?" transform="translate(414.737 260.437)" font-size="15.927" font-family="Averta-Semibold, Averta ☞" font-weight="600"><tspan x="0" y="0">?</tspan></text>
      <path id="Gradient_Overlay" data-name="Gradient Overlay" d="M417.047,256.868h1.579l.039-.7a.894.894,0,0,1,.086-.338,1.591,1.591,0,0,1,.237-.354q.159-.187.292-.319t.381-.362q.249-.229.381-.354a7.67,7.67,0,0,0,.525-.56,5.229,5.229,0,0,0,.436-.61,2.891,2.891,0,0,0,.327-.754,3.214,3.214,0,0,0,.113-.859,3.289,3.289,0,0,0-.179-1.1,2.642,2.642,0,0,0-.49-.863,3.035,3.035,0,0,0-.731-.61,3.293,3.293,0,0,0-.9-.373,4.042,4.042,0,0,0-.992-.121,4.167,4.167,0,0,0-1.793.385,3.685,3.685,0,0,0-1.365,1.085l1.33,1.236a2.123,2.123,0,0,1,.754-.684,1.923,1.923,0,0,1,.925-.249,1.457,1.457,0,0,1,1.034.369,1.339,1.339,0,0,1,.4,1.03,1.892,1.892,0,0,1-.26.984,5.719,5.719,0,0,1-.758.968q-.054.054-.2.206l-.206.218q-.062.066-.187.206t-.187.222l-.163.218a1.806,1.806,0,0,0-.152.233q-.051.1-.117.237a1.273,1.273,0,0,0-.093.261q-.027.121-.051.264a1.818,1.818,0,0,0-.023.292Zm.832,3.694a1.165,1.165,0,0,0,.844-.346,1.127,1.127,0,0,0,.354-.836,1.139,1.139,0,0,0-.354-.84,1.158,1.158,0,0,0-.844-.35,1.22,1.22,0,0,0-.614.159,1.183,1.183,0,0,0-.6,1.03,1.149,1.149,0,0,0,.159.591,1.171,1.171,0,0,0,.439.432A1.22,1.22,0,0,0,417.879,260.561Z" fill="url(#linear-gradient)"/>
    </g>
  </g>
</svg>
