<svg xmlns="http://www.w3.org/2000/svg" width="130" height="43" viewBox="0 0 130 43">
  <path id="Color_Overlay" data-name="Color Overlay" d="M2019.353,972.323a2.327,2.327,0,0,1-.715-1.773,2.508,2.508,0,0,1,.194-.987,2.338,2.338,0,0,1,.556-.8,2.244,2.244,0,0,1,.783-.489,3.073,3.073,0,0,1,1.019-.149,4.055,4.055,0,0,1,.959.107c.111.029.21.059.3.089s.214.085.386.16l-.215.749-.375-.135a2.868,2.868,0,0,0-.944-.172,1.794,1.794,0,0,0-1.256.443,1.469,1.469,0,0,0-.485,1.138,1.588,1.588,0,0,0,.517,1.208,1.8,1.8,0,0,0,1.287.489,2.209,2.209,0,0,0,.6-.1v-1.3h.875v1.923l-.464.115a6.113,6.113,0,0,1-.615.121,4.13,4.13,0,0,1-.538.034A2.591,2.591,0,0,1,2019.353,972.323Zm-22.783-.006a2.434,2.434,0,1,1,3.506,0,2.591,2.591,0,0,1-3.506,0Zm.677-2.947a1.877,1.877,0,0,0,0,2.38,1.468,1.468,0,0,0,2.155-.007,1.859,1.859,0,0,0,0-2.372,1.457,1.457,0,0,0-2.152,0Zm-4.265,3.63-.695-2.016-.7,2.016h-.563l-1.749-4.787h.917l1.181,3.537.568-1.57-.743-1.966h.782l.346.934.309-.935h.744l-.7,1.871.664,1.6,1.086-3.476h.825l-1.66,4.787Zm21.468-3.091-.1-.183-.055-.1-.062-.161v3.442h-.833v-4.7h1.005l1.92,3.089.049.1.041.093.041.121.041.083v-3.485h.833v4.738l-.921,0Zm-7.133.767v2.232h-.875v-4.7h.875v2.192l1.438-2.191h1.007l-1.578,2.28,1.66,2.416-1,0Zm42.728,2.231-1.052-1.879-.435,0v1.882h-.875v-4.7h1.527a3.186,3.186,0,0,1,.774.07,1.051,1.051,0,0,1,.468.278,1.334,1.334,0,0,1,.374,1.016,1.457,1.457,0,0,1-.249.881,1.006,1.006,0,0,1-.278.266,1.656,1.656,0,0,1-.437.167l1.138,2.017Zm-1.487-2.642h.569q.8,0,.8-.667a.572.572,0,0,0-.185-.478,1.006,1.006,0,0,0-.614-.146h-.569Zm-5.034,2.643v-4.7h2.792v.761H2044.4v1.155h1.57v.762h-1.57v1.255h2.007v.762Zm-3.352,0v-3.934H2038.8v-.761h3.623v.761h-1.374v3.934Zm-4.159,0v-3.934h-1.374v-.761h3.623v.761h-1.374v3.934Zm-4.963,0v-4.7h2.79v.761h-1.916v1.155h1.569v.762h-1.569v1.255h2.006v.762Zm-4.561,0v-4.7h1.66a2.8,2.8,0,0,1,.707.068,1.062,1.062,0,0,1,.438.245,1.08,1.08,0,0,1,.361.838,1.111,1.111,0,0,1-.264.739,1.008,1.008,0,0,1-.323.259.978.978,0,0,1-.427.082,1.076,1.076,0,0,1,.826.328,1.246,1.246,0,0,1,.305.884,1.185,1.185,0,0,1-.36.933,1.547,1.547,0,0,1-1.056.32Zm.916-.72h.569a2.728,2.728,0,0,0,.319-.013.6.6,0,0,0,.208-.072.553.553,0,0,0,.313-.548.594.594,0,0,0-.215-.492.987.987,0,0,0-.625-.171h-.569Zm0-2.059h.52q.756,0,.757-.609a.536.536,0,0,0-.187-.438.79.79,0,0,0-.521-.157h-.569Zm-16.564,2.779v-4.7h.875v4.7Zm-6.467,0-1.053-1.879-.436,0v1.882h-.875v-4.7h1.527a3.182,3.182,0,0,1,.774.07,1.048,1.048,0,0,1,.469.278,1.331,1.331,0,0,1,.375,1.016,1.457,1.457,0,0,1-.251.881,1.015,1.015,0,0,1-.276.266,1.683,1.683,0,0,1-.437.167l1.138,2.017Zm-1.489-2.642h.569q.8,0,.8-.667a.577.577,0,0,0-.184-.478,1.014,1.014,0,0,0-.616-.146h-.569Zm-15.274-5.671c-1.221-.049-2.446-.014-3.8-.014.93-3.111,1.833-6.14,2.766-9.258-.23-.107-.448-.215-.671-.312a7.473,7.473,0,0,1-4.792-5.91c-.623-3.678-2.352-13.442-2.352-13.442,1.292.767,3.969,1.364,4.827,2a1,1,0,0,1,.35.556c.593,3.333,1.149,6.673,1.723,10.01a3.28,3.28,0,0,0,2.268,2.626c1.2-4.261,2.375-8.411,3.549-12.569a.926.926,0,0,1,.886-.683h4.212s-5.357,17.708-7.9,26.2c-.176.586-.427.8-.977.8Zm43.621-.092a1.848,1.848,0,0,1-.566-.264,1.315,1.315,0,0,1-.49-.6,2.825,2.825,0,0,1-.136-.989v-2.861h.868V962.7q0,1.045,1.084,1.045a1.007,1.007,0,0,0,.757-.271,1.063,1.063,0,0,0,.264-.774v-2.911h.874v2.861a2.832,2.832,0,0,1-.131.989,1.369,1.369,0,0,1-.5.6,2.2,2.2,0,0,1-1.291.341A2.946,2.946,0,0,1,2031.233,964.5Zm-6.515-.607a2.434,2.434,0,1,1,3.505,0,2.588,2.588,0,0,1-3.505,0Zm.677-2.947a1.878,1.878,0,0,0,0,2.38,1.4,1.4,0,0,0,1.084.466,1.38,1.38,0,0,0,1.073-.474,1.862,1.862,0,0,0,0-2.372,1.459,1.459,0,0,0-2.152,0Zm-15.369,3.616a1.121,1.121,0,0,0-.142-.014,2.975,2.975,0,0,1-.417-.088,5.116,5.116,0,0,1-.541-.239l-.3-.142.367-.827a6.248,6.248,0,0,0,.652.328,1.882,1.882,0,0,0,.66.136.828.828,0,0,0,.487-.128.4.4,0,0,0,.18-.342.417.417,0,0,0-.084-.265,1.164,1.164,0,0,0-.32-.242l-.708-.412a3.1,3.1,0,0,1-.835-.638,1.03,1.03,0,0,1-.226-.666,1.221,1.221,0,0,1,.18-.656,1.312,1.312,0,0,1,.351-.352,1.524,1.524,0,0,1,.492-.239,2.538,2.538,0,0,1,.65-.071,3,3,0,0,1,.86.121c.088.029.184.064.288.1s.226.1.365.167l-.346.805a3.078,3.078,0,0,0-1.187-.335.919.919,0,0,0-.493.113.387.387,0,0,0-.09.577,1.4,1.4,0,0,0,.347.243,6.618,6.618,0,0,1,1.374.905,1.151,1.151,0,0,1,.313.841,1.2,1.2,0,0,1-.424.983,1.814,1.814,0,0,1-1.187.349A1.837,1.837,0,0,1,2010.026,964.565Zm-37.163-.033a6.023,6.023,0,0,0-2.632-6.384c-1.841-1.157-3.672-.683-5.4.427l-1.176.76-2.246-2.662a.7.7,0,0,1,.126-1.013c.773-.546,1.511-1.06,2.215-1.622a1.613,1.613,0,0,0,.506-.945c.067-.423.131-.866-.42-1.189a7.619,7.619,0,0,1-3.807-8.415,7.194,7.194,0,0,1,6.669-5.828,22.663,22.663,0,0,1,2.382-.005,10.337,10.337,0,0,0,7.208-1.9l.6,3.658c.081.608.057,1.3-.507,1.5-.546.2-.9.288-1.354.418a.57.57,0,0,0-.383.7,15.307,15.307,0,0,1,.564,2.5,7.194,7.194,0,0,1-6.086,7.972c-.379.059-.419.266-.379.463.036.177.415.305.533.321,3.137.453,5.594,1.871,6.976,4.474a10.986,10.986,0,0,1,1.048,6.016.875.875,0,0,1-.827.743Zm-8.609-19.325a3.353,3.353,0,1,0,6.7-.1,3.4,3.4,0,0,0-3.361-3.509h-.043A3.412,3.412,0,0,0,1964.254,945.207Zm71.987,19.28v-3.933h-1.374v-.763h3.623v.763h-1.373v3.933Zm-16.355,0v-4.7h1.66a2.793,2.793,0,0,1,.707.068,1.063,1.063,0,0,1,.438.245,1.083,1.083,0,0,1,.361.838,1.111,1.111,0,0,1-.264.739,1.024,1.024,0,0,1-.323.26.991.991,0,0,1-.427.081,1.073,1.073,0,0,1,.825.328,1.241,1.241,0,0,1,.306.884,1.184,1.184,0,0,1-.361.933,1.543,1.543,0,0,1-1.056.32Zm.916-.72h.57a2.724,2.724,0,0,0,.319-.014.614.614,0,0,0,.208-.071.554.554,0,0,0,.313-.549.592.592,0,0,0-.216-.491.983.983,0,0,0-.625-.172h-.57Zm0-2.058h.521q.756,0,.757-.609a.539.539,0,0,0-.187-.439.794.794,0,0,0-.521-.157h-.57Zm-2.846,2.778-.361-1.161h-1.534l-.374,1.161h-.916l1.659-4.7h.785l1.66,4.7Zm-1.658-1.922h1.061l-.535-1.7Zm-12.7,1.922v-3.933h-1.374v-.763h3.623v.763h-1.375v3.933Zm-3.326,0v-4.7h.875v4.7Zm6.637-3.084v-1.612h.576V961.4Zm-80.51-5.711a14.562,14.562,0,0,1-5.4-1.97c.457-1.074.9-2.113,1.354-3.183a1.019,1.019,0,0,1,1.434-.512l.009.005a10.424,10.424,0,0,0,7.266,1.228,5.045,5.045,0,0,0,1.213-.4,2.292,2.292,0,0,0,.431-4.078,17.1,17.1,0,0,0-2.789-1.5c-1.723-.832-3.554-1.466-5.179-2.461a6.5,6.5,0,0,1-.041-11.153,11.733,11.733,0,0,1,7.816-1.578,17.1,17.1,0,0,1,5.3,1.3l-1.048,2.971a1.343,1.343,0,0,1-1.625.868,17.677,17.677,0,0,0-3.182-.706,9.34,9.34,0,0,0-3.636.375,2.22,2.22,0,0,0-.487,3.944,27.357,27.357,0,0,0,3.2,1.629,48.411,48.411,0,0,1,4.766,2.338,6.563,6.563,0,0,1-.019,11.3,11.642,11.642,0,0,1-6.491,1.857A16.944,16.944,0,0,1,1926.4,955.691Zm81.624.221a9.168,9.168,0,0,1-8.9-5.884,9.284,9.284,0,0,1,7.658-12.64c.595-.055,1.191-.09,1.49-.112,3.9.193,6.872,1.57,8.534,5.01,2.865,5.93-.335,13.626-8.647,13.626Zm-4.721-9.251a4.9,4.9,0,1,0,9.795.114c.033-3.084-1.969-5.266-4.846-5.283h-.036C2005.306,941.493,2003.326,943.574,2003.3,946.661Zm-58.423,9a4.53,4.53,0,0,1-3.679-3.7,5.217,5.217,0,0,1,1.706-5.443,11.055,11.055,0,0,1,5.747-2.273c.663-.1,1.332-.17,2.017-.243a.873.873,0,0,0,.741-1.111,2.245,2.245,0,0,0-2.632-1.622,13.541,13.541,0,0,0-3.587,1.031,1.148,1.148,0,0,1-1.74-.671l-1.1-2.493a12.437,12.437,0,0,1,5.958-1.885,13.036,13.036,0,0,1,2.326.127,6.521,6.521,0,0,1,5.486,5.331,12.986,12.986,0,0,1,.184,2.031c.013,1.263.035,10,.035,10,.007.727-.213.89-.859.909-.932.028-2.669,0-2.98-.045a.56.56,0,0,1-.462-.3.807.807,0,0,0-1-.355,16.486,16.486,0,0,1-2.86.854,7.64,7.64,0,0,1-1.215.094A9.944,9.944,0,0,1,1944.875,955.663Zm5.76-7.921a22.012,22.012,0,0,0-2.44.481,5.077,5.077,0,0,0-1.948,1.013,1.558,1.558,0,0,0-.481,1.442,1.446,1.446,0,0,0,1.1,1.031,3.827,3.827,0,0,0,1.771.04c2.091-.351,3.07-1.349,2.992-3.159a.881.881,0,0,0-.86-.859A.849.849,0,0,0,1950.635,947.742Zm70.247,2.558a9.26,9.26,0,0,1,7.638-12.943c.4-.035.794-.063,1.173-.093a9.5,9.5,0,0,1,7.121,2.78c-1.121,1.05-2.241,2.174-3.193,3.157a4.711,4.711,0,0,0-3.776-1.746,4.857,4.857,0,0,0-4.939,5.191,4.733,4.733,0,0,0,4.91,5.081,5.917,5.917,0,0,0,.839-.059l.5.478a1.6,1.6,0,0,0,2.317-.1c.558-.634,2.7-3.082,5.863-6.451a9.28,9.28,0,0,1-1.376,6c-1.786,2.968-4.608,4.124-7.891,4.264-.155.006-.308.009-.461.009A9.207,9.207,0,0,1,2020.882,950.3Zm11.382,1-6.241-5.942a.142.142,0,0,1,.012-.219,3.423,3.423,0,0,1,3.715-.341c.642.37,2.474,1.435,2.474,1.435s4.05-4.452,7.13-7.086c1.876-1.6,5.815-4.5,10.418-4.969a.265.265,0,0,1,.155.492,34.141,34.141,0,0,0-7.6,6.069c-5.038,5.177-9.039,9.7-9.788,10.554a.18.18,0,0,1-.136.062A.2.2,0,0,1,2032.264,951.3Z" transform="translate(-1921 -930)" fill="#fff"/>
</svg>
