<svg xmlns="http://www.w3.org/2000/svg" xmlns:xlink="http://www.w3.org/1999/xlink" width="130" height="43" viewBox="0 0 130 43">
  <defs>
    <linearGradient id="linear-gradient" y1="0.5" x2="1" y2="0.5" gradientUnits="objectBoundingBox">
      <stop offset="0" stop-color="#7500f4"/>
      <stop offset="0.127" stop-color="#473af8"/>
      <stop offset="0.335" stop-color="#0098ff"/>
      <stop offset="0.478" stop-color="#00bae9"/>
      <stop offset="0.639" stop-color="#00dad5"/>
      <stop offset="0.775" stop-color="#00edc9"/>
      <stop offset="0.868" stop-color="#00f5c5"/>
    </linearGradient>
  </defs>
  <g id="Objet_dynamique_vectoriel_copie_4" data-name="Objet dynamique vectoriel copie 4" transform="translate(-568.306 -258.228)">
    <g id="Group_63" data-name="Group 63">
      <path id="Path_114" data-name="Path 114" d="M648.45,292.714h-.875v-4.7h.875Z"/>
      <path id="Path_115" data-name="Path 115" d="M653.15,288.781h-1.375v3.933H650.9v-3.933h-1.374v-.763h3.624Z"/>
      <path id="Path_116" data-name="Path 116" d="M654.788,289.63h-.576v-1.611h.576Z"/>
      <path id="Path_117" data-name="Path 117" d="M659.293,288.325l-.347.806a3.071,3.071,0,0,0-1.187-.334.92.92,0,0,0-.493.113.388.388,0,0,0-.09.577,1.414,1.414,0,0,0,.347.243,6.668,6.668,0,0,1,1.374.905,1.153,1.153,0,0,1,.313.84,1.2,1.2,0,0,1-.424.983,1.812,1.812,0,0,1-1.187.349,1.912,1.912,0,0,1-.267-.014,1.064,1.064,0,0,0-.142-.015,3,3,0,0,1-.417-.088,5.108,5.108,0,0,1-.541-.239l-.3-.143.368-.827a6.253,6.253,0,0,0,.653.328,1.888,1.888,0,0,0,.659.135.829.829,0,0,0,.486-.127.4.4,0,0,0,.18-.342.418.418,0,0,0-.084-.264,1.148,1.148,0,0,0-.319-.242l-.708-.413a3.1,3.1,0,0,1-.836-.638,1.031,1.031,0,0,1-.226-.666,1.222,1.222,0,0,1,.181-.656,1.31,1.31,0,0,1,.351-.352,1.515,1.515,0,0,1,.492-.239,2.53,2.53,0,0,1,.65-.071,2.985,2.985,0,0,1,.861.121q.132.043.288.1A4,4,0,0,1,659.293,288.325Z"/>
      <path id="Path_118" data-name="Path 118" d="M666.18,292.714h-.917l-.361-1.161h-1.534l-.375,1.161h-.916l1.659-4.7h.785Zm-1.514-1.923-.534-1.7-.526,1.7Z"/>
      <path id="Path_119" data-name="Path 119" d="M670.477,291.46a1.185,1.185,0,0,1-.361.934,1.544,1.544,0,0,1-1.056.32h-1.867v-4.7h1.66a2.808,2.808,0,0,1,.708.068,1.059,1.059,0,0,1,.438.245,1.08,1.08,0,0,1,.361.838,1.113,1.113,0,0,1-.264.739,1.01,1.01,0,0,1-.322.259.989.989,0,0,1-.427.082,1.073,1.073,0,0,1,.826.328A1.242,1.242,0,0,1,670.477,291.46Zm-1.09-2.134a.542.542,0,0,0-.187-.44.8.8,0,0,0-.521-.156h-.569v1.2h.521Q669.386,289.936,669.387,289.327Zm.132,2.034a.592.592,0,0,0-.215-.491.983.983,0,0,0-.625-.172h-.569v1.3h.569a2.617,2.617,0,0,0,.319-.014.611.611,0,0,0,.208-.071A.554.554,0,0,0,669.519,291.361Z"/>
      <path id="Path_120" data-name="Path 120" d="M676.21,290.363a2.392,2.392,0,0,1-.68,1.76,2.589,2.589,0,0,1-3.505,0,2.49,2.49,0,1,1,4.186-1.76Zm-.93,0a1.708,1.708,0,0,0-.427-1.187,1.459,1.459,0,0,0-2.152,0,1.879,1.879,0,0,0,0,2.38,1.4,1.4,0,0,0,1.084.466,1.381,1.381,0,0,0,1.072-.474A1.7,1.7,0,0,0,675.28,290.363Z"/>
      <path id="Path_121" data-name="Path 121" d="M681.194,290.879a2.83,2.83,0,0,1-.132.989,1.365,1.365,0,0,1-.5.6,2.2,2.2,0,0,1-1.292.341,2.932,2.932,0,0,1-.732-.078,1.842,1.842,0,0,1-.566-.263,1.313,1.313,0,0,1-.489-.6,2.828,2.828,0,0,1-.136-.989v-2.86h.868v2.91q0,1.045,1.083,1.046a1.01,1.01,0,0,0,.757-.271,1.064,1.064,0,0,0,.264-.775v-2.91h.874Z"/>
      <path id="Path_122" data-name="Path 122" d="M685.8,288.781h-1.374v3.933h-.875v-3.933h-1.375v-.763H685.8Z"/>
      <path id="Path_123" data-name="Path 123" d="M642.556,296.44l-1.659,4.788h-.61l-.695-2.016-.7,2.016h-.563l-1.749-4.788h.917l1.18,3.538.568-1.571-.743-1.967h.782l.345.934.308-.936h.744l-.7,1.871.663,1.605,1.086-3.476Z"/>
      <path id="Path_124" data-name="Path 124" d="M648.061,298.784a2.391,2.391,0,0,1-.68,1.76,2.59,2.59,0,0,1-3.506,0,2.491,2.491,0,1,1,4.186-1.76Zm-.93,0a1.708,1.708,0,0,0-.427-1.187,1.459,1.459,0,0,0-2.152,0,1.878,1.878,0,0,0,0,2.38,1.47,1.47,0,0,0,2.155-.007A1.7,1.7,0,0,0,647.131,298.784Z"/>
      <path id="Path_125" data-name="Path 125" d="M652.636,301.136h-.955l-1.052-1.879h-.436v1.882h-.874v-4.7h1.527a3.168,3.168,0,0,1,.774.071,1.044,1.044,0,0,1,.469.277,1.331,1.331,0,0,1,.375,1.016,1.455,1.455,0,0,1-.251.881,1.019,1.019,0,0,1-.277.266,1.716,1.716,0,0,1-.437.167Zm-1.076-3.31a.576.576,0,0,0-.183-.479,1.011,1.011,0,0,0-.615-.145h-.569v1.29h.569Q651.56,298.492,651.56,297.826Z"/>
      <path id="Path_126" data-name="Path 126" d="M657.148,301.136h-1l-1.525-2.234v2.232h-.875v-4.7h.875v2.193l1.438-2.191h1.007l-1.577,2.28Z"/>
      <path id="Path_127" data-name="Path 127" d="M659.023,301.136h-.875v-4.7h.875Z"/>
      <path id="Path_128" data-name="Path 128" d="M664.639,301.179l-.921,0-1.963-3.044-.1-.182-.055-.1-.062-.162v3.442h-.833v-4.7h1.005l1.92,3.089.048.1.042.092.04.122.042.082V296.44h.833Z"/>
      <path id="Path_129" data-name="Path 129" d="M670.136,300.957l-.465.115a5.951,5.951,0,0,1-.614.121,4.119,4.119,0,0,1-.538.035,2.594,2.594,0,0,1-1.861-.677,2.329,2.329,0,0,1-.715-1.773,2.5,2.5,0,0,1,.195-.987,2.32,2.32,0,0,1,.556-.8,2.241,2.241,0,0,1,.783-.489,3.067,3.067,0,0,1,1.019-.149,4.018,4.018,0,0,1,.959.107c.111.028.21.058.3.089s.214.084.386.16l-.215.749-.375-.135a2.88,2.88,0,0,0-.944-.172,1.8,1.8,0,0,0-1.257.442,1.47,1.47,0,0,0-.485,1.139,1.59,1.59,0,0,0,.517,1.208,1.8,1.8,0,0,0,1.287.489,2.219,2.219,0,0,0,.6-.1v-1.3h.875Z"/>
      <path id="Path_130" data-name="Path 130" d="M677.078,299.882a1.183,1.183,0,0,1-.36.933,1.544,1.544,0,0,1-1.056.321h-1.867v-4.7h1.66a2.806,2.806,0,0,1,.707.068,1.066,1.066,0,0,1,.438.245,1.08,1.08,0,0,1,.362.838,1.109,1.109,0,0,1-.264.739,1,1,0,0,1-.323.259.979.979,0,0,1-.427.082,1.077,1.077,0,0,1,.827.328A1.247,1.247,0,0,1,677.078,299.882Zm-1.09-2.134a.539.539,0,0,0-.187-.439.793.793,0,0,0-.521-.156h-.569v1.2h.521Q675.988,298.356,675.988,297.747Zm.132,2.035a.592.592,0,0,0-.215-.492.984.984,0,0,0-.625-.172h-.569v1.3h.569a2.641,2.641,0,0,0,.319-.013.593.593,0,0,0,.208-.072A.553.553,0,0,0,676.12,299.782Z"/>
      <path id="Path_131" data-name="Path 131" d="M681.236,301.136h-2.881v-4.7h2.79v.762H679.23v1.155H680.8v.762H679.23v1.255h2.006Z"/>
      <path id="Path_132" data-name="Path 132" d="M685.568,297.2h-1.374v3.934h-.874V297.2h-1.375v-.762h3.624Z"/>
      <path id="Path_133" data-name="Path 133" d="M689.726,297.2h-1.374v3.934h-.874V297.2H686.1v-.762h3.624Z"/>
      <path id="Path_134" data-name="Path 134" d="M693.711,301.136H690.83v-4.7h2.791v.762H691.7v1.155h1.569v.762H691.7v1.255h2.006Z"/>
      <path id="Path_135" data-name="Path 135" d="M698.306,301.136h-.956l-1.052-1.879h-.435v1.882h-.875v-4.7h1.527a3.179,3.179,0,0,1,.774.071,1.046,1.046,0,0,1,.468.277,1.333,1.333,0,0,1,.375,1.016,1.455,1.455,0,0,1-.249.881,1.013,1.013,0,0,1-.278.266,1.7,1.7,0,0,1-.437.167Zm-1.076-3.31a.574.574,0,0,0-.184-.479,1.007,1.007,0,0,0-.614-.145h-.569v1.29h.569Q697.23,298.492,697.23,297.826Z"/>
    </g>
    <g id="Group_64" data-name="Group 64">
      <path id="Path_136" data-name="Path 136" d="M616.587,281.526c-.118-.017-.5-.144-.533-.321-.04-.2,0-.4.379-.463a7.194,7.194,0,0,0,6.086-7.972,15.3,15.3,0,0,0-.564-2.5.571.571,0,0,1,.383-.7c.453-.129.808-.219,1.353-.418.563-.206.588-.894.507-1.5l-.6-3.657c-4.207,2.748-6.163,1.677-9.591,1.9a7.193,7.193,0,0,0-6.669,5.827,7.62,7.62,0,0,0,3.806,8.415c.552.322.488.765.421,1.189a1.618,1.618,0,0,1-.507.945c-.7.561-1.442,1.075-2.215,1.621a.7.7,0,0,0-.126,1.013l2.247,2.663,1.177-.761c1.723-1.11,3.555-1.584,5.4-.426a6.021,6.021,0,0,1,2.632,6.383h3.615a.875.875,0,0,0,.828-.743A10.992,10.992,0,0,0,623.563,286C622.182,283.4,619.724,281.979,616.587,281.526Zm-1.671-4.662a3.318,3.318,0,0,1-3.356-3.43,3.357,3.357,0,1,1,6.7-.1A3.324,3.324,0,0,1,614.916,276.864Z"/>
      <path id="Path_137" data-name="Path 137" d="M583.112,271.03a48.521,48.521,0,0,0-4.767-2.338,27.367,27.367,0,0,1-3.2-1.629,2.22,2.22,0,0,1,.487-3.944,9.348,9.348,0,0,1,3.636-.375,17.663,17.663,0,0,1,3.182.706,1.344,1.344,0,0,0,1.626-.868l1.047-2.971a17.1,17.1,0,0,0-5.3-1.295A11.735,11.735,0,0,0,572,259.894a6.5,6.5,0,0,0,.042,11.153c1.624,1,3.456,1.63,5.178,2.461a17.141,17.141,0,0,1,2.789,1.5,2.292,2.292,0,0,1-.431,4.078,5.028,5.028,0,0,1-1.214.4,10.425,10.425,0,0,1-7.266-1.228l-.009-.005a1.02,1.02,0,0,0-1.434.513l-1.353,3.183a14.557,14.557,0,0,0,5.4,1.97,12.627,12.627,0,0,0,9.391-1.592A6.564,6.564,0,0,0,583.112,271.03Z"/>
      <path id="Path_138" data-name="Path 138" d="M635.239,279.08a3.282,3.282,0,0,1-2.268-2.627c-.573-3.337-1.13-6.676-1.722-10.009a1,1,0,0,0-.35-.557c-.858-.638-3.536-1.235-4.826-2,0,0,1.729,9.763,2.351,13.441a7.474,7.474,0,0,0,4.792,5.911c.223.1.441.205.671.312l-2.766,9.258c1.352,0,2.577-.035,3.8.014.617.025.887-.178,1.071-.8,2.539-8.49,7.9-26.2,7.9-26.2h-4.211a.928.928,0,0,0-.887.684C637.614,270.668,636.442,274.818,635.239,279.08Z"/>
      <path id="Path_139" data-name="Path 139" d="M603.6,272.967a12.9,12.9,0,0,0-.184-2.031,6.519,6.519,0,0,0-5.485-5.331,12.985,12.985,0,0,0-2.326-.127,12.438,12.438,0,0,0-5.958,1.884l1.1,2.493a1.148,1.148,0,0,0,1.74.67,13.539,13.539,0,0,1,3.587-1.03,2.244,2.244,0,0,1,2.632,1.622.872.872,0,0,1-.741,1.11c-.684.072-1.353.143-2.017.243a11.049,11.049,0,0,0-5.747,2.272,5.218,5.218,0,0,0-1.707,5.444,4.53,4.53,0,0,0,3.679,3.7,9.078,9.078,0,0,0,3.295.137,16.385,16.385,0,0,0,2.86-.854.806.806,0,0,1,1,.355.561.561,0,0,0,.462.3c.311.048,2.049.072,2.98.045.645-.019.866-.182.859-.909C603.64,282.967,603.619,274.23,603.6,272.967Zm-7.661,7.009a3.818,3.818,0,0,1-1.771-.04,1.446,1.446,0,0,1-1.1-1.031,1.557,1.557,0,0,1,.48-1.442,5.075,5.075,0,0,1,1.949-1.014,22.121,22.121,0,0,1,2.439-.481.875.875,0,0,1,1,.848C599.014,278.627,598.035,279.625,595.944,279.976Z"/>
    </g>
    <path id="Path_140" data-name="Path 140" d="M655.569,265.5c-.3.022-.9.057-1.49.112a9.284,9.284,0,0,0-7.658,12.639,9.167,9.167,0,0,0,8.9,5.885c8.409.08,11.656-7.665,8.777-13.626C662.441,267.074,659.473,265.7,655.569,265.5Zm-.086,14.485a4.7,4.7,0,0,1-4.88-5.1c.028-3.1,2.025-5.186,4.948-5.169,2.877.017,4.88,2.2,4.846,5.283A4.706,4.706,0,0,1,655.484,279.989Z"/>
    <g id="Group_65" data-name="Group 65">
      <path id="Path_141" data-name="Path 141" d="M679.574,280.823a1.606,1.606,0,0,1-1.112-.449l-.5-.478a5.767,5.767,0,0,1-.838.06,4.733,4.733,0,0,1-4.91-5.081,4.858,4.858,0,0,1,4.94-5.191,4.711,4.711,0,0,1,3.776,1.746c.953-.983,2.072-2.106,3.193-3.157a9.494,9.494,0,0,0-7.121-2.78c-.379.029-.776.058-1.173.092a9.285,9.285,0,0,0,1.548,18.5c3.284-.14,6.106-1.3,7.892-4.264a9.28,9.28,0,0,0,1.376-6c-3.164,3.37-5.3,5.817-5.862,6.452A1.606,1.606,0,0,1,679.574,280.823Z"/>
    </g>
    <path id="Path_142" data-name="Path 142" d="M679.57,279.532l-6.24-5.942a.143.143,0,0,1,.011-.219,3.423,3.423,0,0,1,3.716-.34c.642.37,2.474,1.434,2.474,1.434s4.05-4.453,7.13-7.086c1.876-1.605,5.815-4.5,10.419-4.969a.265.265,0,0,1,.154.492,34.138,34.138,0,0,0-7.6,6.069c-5.039,5.176-9.039,9.7-9.788,10.554A.184.184,0,0,1,679.57,279.532Z" fill="url(#linear-gradient)"/>
  </g>
</svg>
